/* XPM */
static char * top_left_active_xpm[] = {
"8 24 6 1",
" 	c None",
".	c #000000",
"+	c #090909",
"@	c #5C5C5C",
"#	c #090909",
"$	c #2C2C2C",
"++++++++",
"+#######",
"+#######",
"+#######",
"+#######",
"+#######",
"+#######",
"+#######",
"+#######",
"+#######",
"+#######",
"+#######",
"+#######",
"+#######",
"+#######",
"+#######",
"+#######",
"+#######",
"+#######",
"+#######",
"+#######",
"+#######",
"+#######",
"++++++++"};
